<?xml version="1.0" encoding="UTF-8" standalone="no"?>
<svg
   xmlns:dc="http://purl.org/dc/elements/1.1/"
   xmlns:cc="http://creativecommons.org/ns#"
   xmlns:rdf="http://www.w3.org/1999/02/22-rdf-syntax-ns#"
   xmlns:svg="http://www.w3.org/2000/svg"
   xmlns="http://www.w3.org/2000/svg"
   xmlns:sodipodi="http://sodipodi.sourceforge.net/DTD/sodipodi-0.dtd"
   xmlns:inkscape="http://www.inkscape.org/namespaces/inkscape"
   width="132.28288mm"
   height="83.654861mm"
   viewBox="0 0 132.28288 83.654861"
   version="1.1"
   id="svg1147"
   inkscape:version="1.0.1 (c497b03c, 2020-09-10)"
   sodipodi:docname="design.svg">
  <defs
     id="defs1141">
    <rect
       x="17.386906"
       y="30.238094"
       width="93.738098"
       height="92.226189"
       id="rect1069" />
  </defs>
  <sodipodi:namedview
     id="base"
     pagecolor="#ffffff"
     bordercolor="#666666"
     borderopacity="1.0"
     inkscape:pageopacity="0.0"
     inkscape:pageshadow="2"
     inkscape:zoom="0.62674332"
     inkscape:cx="214.99031"
     inkscape:cy="501.15033"
     inkscape:document-units="mm"
     inkscape:current-layer="layer1"
     inkscape:document-rotation="0"
     showgrid="false"
     fit-margin-top="0"
     fit-margin-left="0"
     fit-margin-right="0"
     fit-margin-bottom="0"
     inkscape:window-width="1440"
     inkscape:window-height="847"
     inkscape:window-x="-7"
     inkscape:window-y="28"
     inkscape:window-maximized="0" />
  <metadata
     id="metadata1144">
    <rdf:RDF>
      <cc:Work
         rdf:about="">
        <dc:format>image/svg+xml</dc:format>
        <dc:type
           rdf:resource="http://purl.org/dc/dcmitype/StillImage" />
        <dc:title></dc:title>
      </cc:Work>
    </rdf:RDF>
  </metadata>
  <g
     inkscape:label="レイヤー 1"
     inkscape:groupmode="layer"
     id="layer1">
    <g
       id="g1171"
       transform="translate(102.91413,-1.8520817)">
      <g
         id="layer3"
         inkscape:label="button"
         style="display:inline">
        <path
           id="rect848"
           style="fill:#000000;fill-opacity:1;fill-rule:evenodd;stroke:none;stroke-width:0.0233012;stroke-linecap:round;stroke-linejoin:round"
           d="m 26.304839,1.8520816 c -0.509726,0 -0.976676,0.1479571 -1.340893,0.4195036 -0.364218,0.2715466 -0.64161,0.7008536 -0.64161,1.2114378 v 0.8167938 h 0.778796 V 3.483023 c 0,-0.147414 0.07789,-0.3120631 0.289558,-0.4698781 0.211673,-0.1578151 0.541321,-0.2746196 0.914149,-0.2746196 0.372829,0 0.70239,0.1168045 0.914063,0.2746196 0.211672,0.157815 0.289558,0.3224636 0.289558,0.4698781 v 2.2249226 c -1.267149,0.018426 -2.377228,0.012404 -3.537474,0.012404 -0.345705,0 -0.62401,0.3167777 -0.62401,0.7102673 v 3.7644371 c 0,0.39349 0.278305,0.710268 0.62401,0.710268 h 4.773728 c 0.345706,0 0.624036,-0.316778 0.624036,-0.710268 V 6.430618 c 0,-0.3934897 -0.27833,-0.7102674 -0.624036,-0.7102674 H 28.287257 V 3.483023 c 0,-0.5105842 -0.277372,-0.9398912 -0.641589,-1.2114378 C 27.28145,2.0000387 26.814564,1.8520816 26.304839,1.8520816 Z m 0.108627,4.9336821 h 5.56e-4 c 0.465254,1.8e-6 0.842417,0.4292981 0.84242,0.9588618 1e-6,0.364263 -0.181333,0.6970694 -0.468016,0.8589624 v 0.95221 c 0,0.2360938 -0.166981,0.4261794 -0.374404,0.4261794 -0.207424,0 -0.374404,-0.1900856 -0.374404,-0.4261794 v -0.95221 c -0.286684,-0.161893 -0.468017,-0.4946994 -0.468016,-0.8589624 2e-6,-0.5293177 0.376827,-0.9585113 0.841866,-0.9588618 z"
           sodipodi:nodetypes="sssccsssssccssssssscsssssscssscss" />
        <path
           id="path868-5"
           style="fill:#000000;fill-opacity:1;fill-rule:evenodd;stroke:none;stroke-width:0.0233012;stroke-linecap:round;stroke-linejoin:round"
           d="m 19.097447,3.0950549 c -0.509725,0 -0.976675,0.1479571 -1.340895,0.4195036 -0.364215,0.2715466 -0.64161,0.7008538 -0.64161,1.2114378 v 0.9943543 h -0.351345 c -0.345704,0 -0.624014,0.3167777 -0.624014,0.7102674 v 3.764437 c 0,0.39349 0.27831,0.710268 0.624014,0.710268 h 4.77372 c 0.345703,0 0.624033,-0.316778 0.624033,-0.710268 V 6.430618 c 0,-0.3934897 -0.27833,-0.7102674 -0.624033,-0.7102674 H 21.079862 V 4.7259963 c 0,-0.510584 -0.27737,-0.9398912 -0.64159,-1.2114378 C 20.074056,3.243012 19.607171,3.0950549 19.097447,3.0950549 Z m 0,0.8864443 c 0.372824,0 0.702389,0.116804 0.914059,0.2746191 0.211676,0.157815 0.289561,0.3224641 0.289561,0.469878 v 0.9819493 c -0.162691,0.0037 -0.361466,0.0093 -0.689326,0.012404 h -0.792869 c -0.389495,-0.00586 -0.69543,-0.022889 -0.925135,-0.038819 V 4.725995 c 0,-0.1474142 0.07789,-0.3120632 0.28956,-0.4698782 0.211675,-0.1578151 0.54132,-0.2746191 0.91415,-0.2746191 z m 0.108624,2.8042645 a 0.84242288,0.95886532 0 0 1 5.03e-4,0 0.84242288,0.95886532 0 0 1 0.842415,0.9588618 0.84242288,0.95886532 0 0 1 -0.468015,0.8589624 v 0.95221 c 0,0.2360938 -0.16698,0.4261794 -0.3744,0.4261794 -0.207424,0 -0.374404,-0.1900856 -0.374404,-0.4261794 v -0.95221 A 0.84242288,0.95886532 0 0 1 18.364152,7.7446255 0.84242288,0.95886532 0 0 1 19.206016,6.7857637 Z" />
      </g>
    </g>
    <text
       xml:space="preserve"
       id="text1067"
       style="font-style:normal;font-variant:normal;font-weight:600;font-stretch:normal;font-size:4.23332999999999959px;font-family:'Hiragino Kaku Gothic ProN';-inkscape-font-specification:'Hiragino Kaku Gothic ProN, Semi-Bold';font-variant-ligatures:normal;font-variant-caps:normal;font-variant-numeric:normal;font-variant-east-asian:normal;white-space:pre;shape-inside:url(#rect1069);fill:#ffffff;fill-opacity:1;fill-rule:evenodd;stroke:none;stroke-width:2.11667;stroke-linecap:round;stroke-linejoin:round;"
       transform="translate(-17.433285,-31.093414)"><tspan
         x="17.386719"
         y="34.492778"><tspan
           style="font-style:normal;font-variant:normal;font-weight:600;font-stretch:normal;font-size:4.23333px;font-family:'Hiragino Kaku Gothic ProN';-inkscape-font-specification:'Hiragino Kaku Gothic ProN, Semi-Bold';font-variant-ligatures:normal;font-variant-caps:normal;font-variant-numeric:normal;font-variant-east-asian:normal">YzgcauJnJPa4BtWb8xhHFpdsTzW9PyKZ</tspan></tspan><tspan
         x="17.386719"
         y="39.784442"><tspan
           style="font-style:normal;font-variant:normal;font-weight:600;font-stretch:normal;font-size:4.23333px;font-family:'Hiragino Kaku Gothic ProN';-inkscape-font-specification:'Hiragino Kaku Gothic ProN, Semi-Bold';font-variant-ligatures:normal;font-variant-caps:normal;font-variant-numeric:normal;font-variant-east-asian:normal">ryjDQ6fhrAyFB84rsANcEEVu8EXyZdtDR</tspan></tspan><tspan
         x="17.386719"
         y="45.076106"><tspan
           style="font-style:normal;font-variant:normal;font-weight:600;font-stretch:normal;font-size:4.23333px;font-family:'Hiragino Kaku Gothic ProN';-inkscape-font-specification:'Hiragino Kaku Gothic ProN, Semi-Bold';font-variant-ligatures:normal;font-variant-caps:normal;font-variant-numeric:normal;font-variant-east-asian:normal">VRFiKPuDAJfVuDH798wVmrB8M6bsB8</tspan></tspan><tspan
         x="17.386719"
         y="50.36777"><tspan
           style="font-style:normal;font-variant:normal;font-weight:600;font-stretch:normal;font-size:4.23333px;font-family:'Hiragino Kaku Gothic ProN';-inkscape-font-specification:'Hiragino Kaku Gothic ProN, Semi-Bold';font-variant-ligatures:normal;font-variant-caps:normal;font-variant-numeric:normal;font-variant-east-asian:normal">72FiDHMm94t8AxkfAFD4pYbsRkpzTZV</tspan></tspan><tspan
         x="17.386719"
         y="55.659434"><tspan
           style="font-style:normal;font-variant:normal;font-weight:600;font-stretch:normal;font-size:4.23333px;font-family:'Hiragino Kaku Gothic ProN';-inkscape-font-specification:'Hiragino Kaku Gothic ProN, Semi-Bold';font-variant-ligatures:normal;font-variant-caps:normal;font-variant-numeric:normal;font-variant-east-asian:normal">cFGa5aZucMy6AQhGaXNJ44WUSSMMC</tspan></tspan><tspan
         x="17.386719"
         y="60.951098"><tspan
           style="font-style:normal;font-variant:normal;font-weight:600;font-stretch:normal;font-size:4.23333px;font-family:'Hiragino Kaku Gothic ProN';-inkscape-font-specification:'Hiragino Kaku Gothic ProN, Semi-Bold';font-variant-ligatures:normal;font-variant-caps:normal;font-variant-numeric:normal;font-variant-east-asian:normal">upDjJCxYkfjnVANwb2uQyH6ZpTMdWM</tspan></tspan><tspan
         x="17.386719"
         y="66.242762"><tspan
           style="font-style:normal;font-variant:normal;font-weight:600;font-stretch:normal;font-size:4.23333px;font-family:'Hiragino Kaku Gothic ProN';-inkscape-font-specification:'Hiragino Kaku Gothic ProN, Semi-Bold';font-variant-ligatures:normal;font-variant-caps:normal;font-variant-numeric:normal;font-variant-east-asian:normal">4f76B8TiwJYRfZJ9BQNLJyeKRSuCV9kB</tspan></tspan><tspan
         x="17.386719"
         y="71.534427"><tspan
           style="font-style:normal;font-variant:normal;font-weight:600;font-stretch:normal;font-size:4.23333px;font-family:'Hiragino Kaku Gothic ProN';-inkscape-font-specification:'Hiragino Kaku Gothic ProN, Semi-Bold';font-variant-ligatures:normal;font-variant-caps:normal;font-variant-numeric:normal;font-variant-east-asian:normal">GwZVRsSTUwD6njYCNtCyUU8r36m3t47</tspan></tspan><tspan
         x="17.386719"
         y="76.826091"><tspan
           style="font-style:normal;font-variant:normal;font-weight:600;font-stretch:normal;font-size:4.23333px;font-family:'Hiragino Kaku Gothic ProN';-inkscape-font-specification:'Hiragino Kaku Gothic ProN, Semi-Bold';font-variant-ligatures:normal;font-variant-caps:normal;font-variant-numeric:normal;font-variant-east-asian:normal">5uZwu5ytUXA2eGNWRQpELGzbuSL65K</tspan></tspan><tspan
         x="17.386719"
         y="82.117755"><tspan
           style="font-style:normal;font-variant:normal;font-weight:600;font-stretch:normal;font-size:4.23333px;font-family:'Hiragino Kaku Gothic ProN';-inkscape-font-specification:'Hiragino Kaku Gothic ProN, Semi-Bold';font-variant-ligatures:normal;font-variant-caps:normal;font-variant-numeric:normal;font-variant-east-asian:normal">PW4beKanUuhRVdQ2YsjnPcNStGsRyeit</tspan></tspan><tspan
         x="17.386719"
         y="87.409419"><tspan
           style="font-style:normal;font-variant:normal;font-weight:600;font-stretch:normal;font-size:4.23333px;font-family:'Hiragino Kaku Gothic ProN';-inkscape-font-specification:'Hiragino Kaku Gothic ProN, Semi-Bold';font-variant-ligatures:normal;font-variant-caps:normal;font-variant-numeric:normal;font-variant-east-asian:normal">MQLsWrV2VwfmZ6hd8XJDjphRHzfWBi2</tspan></tspan><tspan
         x="17.386719"
         y="92.701083"><tspan
           style="font-style:normal;font-variant:normal;font-weight:600;font-stretch:normal;font-size:4.23333px;font-family:'Hiragino Kaku Gothic ProN';-inkscape-font-specification:'Hiragino Kaku Gothic ProN, Semi-Bold';font-variant-ligatures:normal;font-variant-caps:normal;font-variant-numeric:normal;font-variant-east-asian:normal">LzzVi8kLc8T9NppWyYV7YyMGcK2mm5</tspan></tspan><tspan
         x="17.386719"
         y="97.992747"><tspan
           style="font-style:normal;font-variant:normal;font-weight:600;font-stretch:normal;font-size:4.23333px;font-family:'Hiragino Kaku Gothic ProN';-inkscape-font-specification:'Hiragino Kaku Gothic ProN, Semi-Bold';font-variant-ligatures:normal;font-variant-caps:normal;font-variant-numeric:normal;font-variant-east-asian:normal">XWaf39pr6QVjwrGLye33ZTKB5rFauVxB</tspan></tspan><tspan
         x="17.386719"
         y="103.28441"><tspan
           style="font-style:normal;font-variant:normal;font-weight:600;font-stretch:normal;font-size:4.23333px;font-family:'Hiragino Kaku Gothic ProN';-inkscape-font-specification:'Hiragino Kaku Gothic ProN, Semi-Bold';font-variant-ligatures:normal;font-variant-caps:normal;font-variant-numeric:normal;font-variant-east-asian:normal">StACxFeScy4nyK5ABzx3zns69mxVFkwn</tspan></tspan><tspan
         x="17.386719"
         y="108.57608"><tspan
           style="font-style:normal;font-variant:normal;font-weight:600;font-stretch:normal;font-size:4.23333px;font-family:'Hiragino Kaku Gothic ProN';-inkscape-font-specification:'Hiragino Kaku Gothic ProN, Semi-Bold';font-variant-ligatures:normal;font-variant-caps:normal;font-variant-numeric:normal;font-variant-east-asian:normal">DE9kBAx8KNaPhFx56YfZ8WV3b2Z6Q7</tspan></tspan><tspan
         x="17.386719"
         y="113.86774"><tspan
           style="font-style:normal;font-variant:normal;font-weight:600;font-stretch:normal;font-size:4.23333px;font-family:'Hiragino Kaku Gothic ProN';-inkscape-font-specification:'Hiragino Kaku Gothic ProN, Semi-Bold';font-variant-ligatures:normal;font-variant-caps:normal;font-variant-numeric:normal;font-variant-east-asian:normal">Sg9w9zcmsdrGPVUXyhiLesbUf3QGw5rT
</tspan></tspan></text>
    <path
       d="m 93.915476,2.9503779 c 0.62684,-0.125501 1.44185,-0.219904 2.22546,-0.219904 h 13.007934 c -1.44183,1.504454 -2.00603,2.100083 -6.01812,6.112108 -7.522664,7.5853551 -9.779474,10.7197641 -9.779474,13.6035041 0,1.598524 0.90905,2.789671 2.57025,3.322552 1.6926,0.56419 3.54192,0.6897 9.027194,0.6897 6.51964,0 10.31232,-0.1566 11.81685,-0.4387 1.56723,-0.3132 2.28814,-0.971799 2.28814,-1.974694 0,-0.751894 -0.53287,-1.379065 -1.41049,-1.629844 -0.47013,-0.125501 -0.5642,-0.219904 -0.5642,-0.658602 0,-0.1255 0,-0.376502 0.0311,-0.626393 l 0.2821,-6.331568 -0.2821,-0.06664 c -1.06576,3.29123 -1.81798,5.359882 -2.41352,6.676418 -0.47013,1.033993 -0.78366,1.347745 -1.50453,1.504454 -0.87762,0.187696 -3.32251,0.282099 -7.27191,0.282099 -5.20318,0 -6.895774,-0.06664 -7.679394,-0.313196 -0.78366,-0.219904 -1.15974,-0.658601 -1.15974,-1.285106 0,-0.502003 0.25078,-1.191146 0.78355,-2.037443 0.97169,-1.598524 2.225464,-2.946269 7.554014,-8.337581 3.51058,-3.5418981 5.3599,-5.2658121 8.05552,-7.4286451 1.47319,-0.08885 1.84932,-0.219904 1.84932,-0.595296 0,-0.156598 -0.0622,-0.282099 -0.31341,-0.502003 C 113.59952,1.4732449 113.1607,1.1283959 111.65617,-1.3586427e-7 110.59041,1.0339919 110.59041,1.0339919 109.46206,2.0687629 H 96.140676 c -0.5642,0 -1.78663,-0.125501 -2.50756,-0.251002 z"
       style="font-style:normal;font-variant:normal;font-weight:600;font-stretch:normal;font-size:2.82223px;font-family:'Hiragino Mincho ProN';-inkscape-font-specification:'Hiragino Mincho ProN, Semi-Bold';font-variant-ligatures:normal;font-variant-caps:normal;font-variant-numeric:normal;font-variant-east-asian:normal;fill:#000000;fill-rule:evenodd;stroke:none;stroke-width:23.5083;stroke-linecap:round;stroke-linejoin:round"
       id="path837" />
  </g>
</svg>
