<?xml version="1.0" encoding="UTF-8" standalone="no"?>
<svg
   xmlns:dc="http://purl.org/dc/elements/1.1/"
   xmlns:cc="http://creativecommons.org/ns#"
   xmlns:rdf="http://www.w3.org/1999/02/22-rdf-syntax-ns#"
   xmlns:svg="http://www.w3.org/2000/svg"
   xmlns="http://www.w3.org/2000/svg"
   xmlns:sodipodi="http://sodipodi.sourceforge.net/DTD/sodipodi-0.dtd"
   xmlns:inkscape="http://www.inkscape.org/namespaces/inkscape"
   width="12.043544mm"
   height="16.863508mm"
   viewBox="0 0 12.043544 16.863508"
   version="1.1"
   id="svg3284"
   inkscape:version="1.0.1 (c497b03c, 2020-09-10)"
   sodipodi:docname="design.svg"
   inkscape:export-filename="/Users/suzuran/Desktop/background_image.png"
   inkscape:export-xdpi="96"
   inkscape:export-ydpi="96">
  <defs
     id="defs3278" />
  <sodipodi:namedview
     id="base"
     pagecolor="#ffffff"
     bordercolor="#666666"
     borderopacity="1.0"
     inkscape:pageopacity="0.0"
     inkscape:pageshadow="2"
     inkscape:zoom="1"
     inkscape:cx="27.515295"
     inkscape:cy="19.506473"
     inkscape:document-units="mm"
     inkscape:current-layer="layer3"
     inkscape:document-rotation="0"
     showgrid="false"
     fit-margin-top="0"
     fit-margin-left="0"
     fit-margin-right="0"
     fit-margin-bottom="0"
     inkscape:window-width="1440"
     inkscape:window-height="847"
     inkscape:window-x="-49"
     inkscape:window-y="60"
     inkscape:window-maximized="0" />
  <metadata
     id="metadata3281">
    <rdf:RDF>
      <cc:Work
         rdf:about="">
        <dc:format>image/svg+xml</dc:format>
        <dc:type
           rdf:resource="http://purl.org/dc/dcmitype/StillImage" />
        <dc:title></dc:title>
      </cc:Work>
    </rdf:RDF>
  </metadata>
  <g
     inkscape:groupmode="layer"
     id="layer3"
     inkscape:label="button"
     style="display:inline">
    <path
       id="rect848"
       style="fill:#000000;fill-opacity:1;fill-rule:evenodd;stroke:none;stroke-width:0.0233012;stroke-linecap:round;stroke-linejoin:round"
       d="m 26.304839,1.8520816 c -0.509726,0 -0.976676,0.1479571 -1.340893,0.4195036 -0.364218,0.2715466 -0.64161,0.7008536 -0.64161,1.2114378 v 0.8167938 h 0.778796 V 3.483023 c 0,-0.147414 0.07789,-0.3120631 0.289558,-0.4698781 0.211673,-0.1578151 0.541321,-0.2746196 0.914149,-0.2746196 0.372829,0 0.70239,0.1168045 0.914063,0.2746196 0.211672,0.157815 0.289558,0.3224636 0.289558,0.4698781 v 2.2249226 c -1.267149,0.018426 -2.377228,0.012404 -3.537474,0.012404 -0.345705,0 -0.62401,0.3167777 -0.62401,0.7102673 v 3.7644371 c 0,0.39349 0.278305,0.710268 0.62401,0.710268 h 4.773728 c 0.345706,0 0.624036,-0.316778 0.624036,-0.710268 V 6.430618 c 0,-0.3934897 -0.27833,-0.7102674 -0.624036,-0.7102674 H 28.287257 V 3.483023 c 0,-0.5105842 -0.277372,-0.9398912 -0.641589,-1.2114378 C 27.28145,2.0000387 26.814564,1.8520816 26.304839,1.8520816 Z m 0.108627,4.9336821 h 5.56e-4 c 0.465254,1.8e-6 0.842417,0.4292981 0.84242,0.9588618 1e-6,0.364263 -0.181333,0.6970694 -0.468016,0.8589624 v 0.95221 c 0,0.2360938 -0.166981,0.4261794 -0.374404,0.4261794 -0.207424,0 -0.374404,-0.1900856 -0.374404,-0.4261794 v -0.95221 c -0.286684,-0.161893 -0.468017,-0.4946994 -0.468016,-0.8589624 2e-6,-0.5293177 0.376827,-0.9585113 0.841866,-0.9588618 z"
       sodipodi:nodetypes="sssccsssssccssssssscsssssscssscss" />
    <path
       id="path868-5"
       style="fill:#000000;fill-opacity:1;fill-rule:evenodd;stroke:none;stroke-width:0.0233012;stroke-linecap:round;stroke-linejoin:round"
       d="m 19.097447,3.0950549 c -0.509725,0 -0.976675,0.1479571 -1.340895,0.4195036 -0.364215,0.2715466 -0.64161,0.7008538 -0.64161,1.2114378 v 0.9943543 h -0.351345 c -0.345704,0 -0.624014,0.3167777 -0.624014,0.7102674 v 3.764437 c 0,0.39349 0.27831,0.710268 0.624014,0.710268 h 4.77372 c 0.345703,0 0.624033,-0.316778 0.624033,-0.710268 V 6.430618 c 0,-0.3934897 -0.27833,-0.7102674 -0.624033,-0.7102674 H 21.079862 V 4.7259963 c 0,-0.510584 -0.27737,-0.9398912 -0.64159,-1.2114378 C 20.074056,3.243012 19.607171,3.0950549 19.097447,3.0950549 Z m 0,0.8864443 c 0.372824,0 0.702389,0.116804 0.914059,0.2746191 0.211676,0.157815 0.289561,0.3224641 0.289561,0.469878 v 0.9819493 c -0.162691,0.0037 -0.361466,0.0093 -0.689326,0.012404 h -0.792869 c -0.389495,-0.00586 -0.69543,-0.022889 -0.925135,-0.038819 V 4.725995 c 0,-0.1474142 0.07789,-0.3120632 0.28956,-0.4698782 0.211675,-0.1578151 0.54132,-0.2746191 0.91415,-0.2746191 z m 0.108624,2.8042645 a 0.84242288,0.95886532 0 0 1 5.03e-4,0 0.84242288,0.95886532 0 0 1 0.842415,0.9588618 0.84242288,0.95886532 0 0 1 -0.468015,0.8589624 v 0.95221 c 0,0.2360938 -0.16698,0.4261794 -0.3744,0.4261794 -0.207424,0 -0.374404,-0.1900856 -0.374404,-0.4261794 v -0.95221 A 0.84242288,0.95886532 0 0 1 18.364152,7.7446255 0.84242288,0.95886532 0 0 1 19.206016,6.7857637 Z" />
    <path
       id="path876"
       style="fill:#000000;fill-opacity:1;fill-rule:evenodd;stroke:none;stroke-width:0.826206;stroke-linecap:round;stroke-linejoin:round;stroke-miterlimit:4;stroke-dasharray:none;stroke-opacity:1"
       inkscape:transform-center-x="0.49165167"
       d="m 23.061412,11.204097 -0.02325,1.299345 h 2.565624 v 1.136423 h -2.568165 l 0.0258,1.441387 -1.457651,-1.003482 -1.492335,-0.935094 1.492325,-0.935095 z" />
  </g>
  <g
     inkscape:label="background"
     inkscape:groupmode="layer"
     id="layer1"
     transform="translate(-153.64732,-166.98553)"
     style="display:inline"
     sodipodi:insensitive="true">
    <g
       id="g6683"
       transform="translate(249.12418,167.95276)">
      <path
         id="path868"
         style="fill:#ffc800;fill-opacity:1;fill-rule:evenodd;stroke:none;stroke-width:0.0233012;stroke-linecap:round;stroke-linejoin:round"
         d="m -92.518999,-0.96722781 c -0.509725,0 -0.976675,0.14795704 -1.340895,0.41950362 -0.364215,0.27154659 -0.64161,0.70085374 -0.64161,1.21143792 V 1.6580679 h -0.351345 c -0.345704,0 -0.624014,0.3167776 -0.624014,0.7102672 V 6.132772 c 0,0.3934906 0.27831,0.7102681 0.624014,0.7102681 h 4.77372 c 0.345703,0 0.624033,-0.3167775 0.624033,-0.7102681 V 2.3683351 c 0,-0.3934896 -0.27833,-0.7102672 -0.624033,-0.7102672 h -0.457455 V 0.66371373 c 0,-0.51058418 -0.27737,-0.93989133 -0.64159,-1.21143792 -0.364216,-0.27154658 -0.831101,-0.41950362 -1.340825,-0.41950362 z m 0,0.8864443 c 0.372824,0 0.702389,0.116804 0.914059,0.27461906 0.211676,0.15781506 0.289561,0.32246412 0.289561,0.46987818 V 1.6456629 c -0.162691,0.0037 -0.361466,0.0093 -0.689326,0.012405 h -0.792869 c -0.389495,-0.00586 -0.69543,-0.02289 -0.925135,-0.03882 V 0.66371223 c 0,-0.14741406 0.07789,-0.31206312 0.28956,-0.46987818 0.211675,-0.15781506 0.54132,-0.27461906 0.91415,-0.27461906 z m 0.108624,2.80426431 a 0.84242286,0.9588653 0 0 1 5e-4,0 0.84242286,0.9588653 0 0 1 0.842415,0.9588618 0.84242286,0.9588653 0 0 1 -0.468015,0.8589626 v 0.9522099 c 0,0.2360937 -0.16698,0.4261794 -0.3744,0.4261794 -0.207424,0 -0.374404,-0.1900857 -0.374404,-0.4261794 V 4.5413052 a 0.84242286,0.9588653 0 0 1 -0.468015,-0.8589626 0.84242286,0.9588653 0 0 1 0.841864,-0.9588618 z" />
      <path
         id="path3298"
         style="fill:#ffc800;fill-opacity:1;fill-rule:evenodd;stroke:none;stroke-width:0.0233012;stroke-linecap:round;stroke-linejoin:round"
         d="m -86.49723,6.8430451 c -0.509726,0 -0.976676,0.1479575 -1.340893,0.419504 -0.364223,0.2715466 -0.641613,0.7008536 -0.641613,1.2114381 v 0.8167927 h 0.778799 V 8.4739872 c 0,-0.1474144 0.07789,-0.3120634 0.289558,-0.4698784 0.211673,-0.1578151 0.541321,-0.2746196 0.914149,-0.2746196 0.372829,0 0.70239,0.1168045 0.914063,0.2746196 0.211672,0.157815 0.289558,0.3224635 0.289558,0.4698784 v 2.2249208 c -1.267149,0.01842 -2.377228,0.0124 -3.537477,0.0124 -0.3457,0 -0.62401,0.316778 -0.62401,0.710267 v 3.764438 c 0,0.39349 0.27831,0.710268 0.62401,0.710268 h 4.773731 c 0.345706,0 0.624036,-0.316778 0.624036,-0.710268 v -3.764438 c 0,-0.393489 -0.27833,-0.710267 -0.624036,-0.710267 h -0.457457 V 8.4739822 c 0,-0.5105845 -0.277372,-0.9398915 -0.641589,-1.2114381 -0.364218,-0.2715465 -0.831104,-0.419504 -1.340829,-0.419504 z m 0.108627,4.9336809 h 5.5e-4 c 0.465254,2e-6 0.842417,0.429298 0.84242,0.958862 10e-7,0.364263 -0.181333,0.69707 -0.468016,0.858963 v 0.95221 c 0,0.236093 -0.166981,0.426179 -0.374404,0.426179 -0.207424,0 -0.374404,-0.190086 -0.374404,-0.426179 v -0.95221 c -0.286684,-0.161893 -0.468017,-0.4947 -0.468016,-0.858963 2e-6,-0.529318 0.376827,-0.958511 0.841866,-0.958862 z"
         sodipodi:nodetypes="sssccsssssccssssssscsssssscssscss" />
      <rect
         style="fill:none;fill-opacity:1;fill-rule:evenodd;stroke:none;stroke-width:1.91619;stroke-linecap:round;stroke-linejoin:round"
         id="rect3338"
         width="12.043569"
         height="16.863483"
         x="-95.476875"
         y="-0.96721762"
         ry="0" />
    </g>
  </g>
</svg>
